<svg viewBox="0 -1000 2450 1000" xmlns="http://www.w3.org/2000/svg" fill="currentColor">
    <g transform="scale(1, 1)">
        <path d="M450 0H300V500H200Q199 499 197.5 499.0Q196 499 195 499Q178 497 164.0 483.0Q150 469 150 449V0H0V450Q0 532 59.0 590.5Q118 649 200 649L550 650Q633 649 691.5 590.5Q750 532 750 449V0H600V450Q600 470 585.5 484.5Q571 499 550 499L450 500V0Z" transform="translate(0, 0) scale(1, -1)" /><path d="M500 250H150V0H0V650H150V400H500V650H650V0H500V250Z" transform="translate(800, 0) scale(1, -1)" /><path d="M0 650Q0 649 77.5 649.0Q155 649 248 649Q328 649 398.5 649.0Q469 649 489 649Q572 649 630.5 590.5Q689 532 689 449Q689 415 679.0 384.5Q669 354 653 328Q676 302 688.0 269.0Q700 236 700 199V0H550V200Q550 218 537.5 232.0Q525 246 508 249Q506 249 450.5 249.0Q395 249 329 249Q262 249 206.0 249.0Q150 249 150 249V-1H0V650ZM494 500H150V400H494Q514 399 529.0 414.0Q544 429 544 449Q544 470 529.0 484.5Q514 499 494 499Z" transform="translate(1500, 0) scale(1, -1)" /><path d="M150 0H0V650H150V0Z" transform="translate(2250, 0) scale(1, -1)" />
    </g>
</svg>
